<?xml version="1.0" encoding="utf-8"?>
<!-- Generator: Adobe Illustrator 21.1.0, SVG Export Plug-In . SVG Version: 6.00 Build 0)  -->
<svg version="1.1" id="Layer_1" xmlns="http://www.w3.org/2000/svg" xmlns:xlink="http://www.w3.org/1999/xlink" x="0px" y="0px"
	 viewBox="0 0 250 250" style="enable-background:new 0 0 250 250;" xml:space="preserve">
<style type="text/css">
	.st0{fill:#020303;}
</style>
<g>
	<path class="st0" d="M175.2,128.5c-1.6,0.2-3.3,0.3-5,0.3c-0.6,0-1.2-0.1-1.8-0.2l-0.1,0.2c0.2,0.2,0.5,0.4,0.7,0.5
		c1.4,0.6,2.8,1,4.1,1.6c0.6,0.2,1.1,0.5,1.6,0.9c0.8,0.5,1.5,1,2.2,1.5l0,0c0.2,0.1,0.4,0,0.5,0c0-0.2,0-0.4,0-0.6
		c-0.4-1.2-0.8-2.3-1.2-3.5C176.1,128.7,175.6,128.4,175.2,128.5z"/>
	<path class="st0" d="M125.5,24.5c-55.2,0-100,44.8-100,100c0,55.2,44.8,100,100,100s100-44.8,100-100
		C225.5,69.3,180.7,24.5,125.5,24.5z M143.2,148c-14.6,10.2-20.4,24.8-19,42.7c-0.8-1.1-1.5-2-2.2-2.9
		c-8.5-11.8-12.3-25.5-11.1-41.3c0.1-1,0.2-2,0.5-3c0.9-3.2,1.3-6.7,2.9-9.7c-3.4-2.5-7.2-4.3-10.7-6.6
		c-6.6-4.3-11.1-11.1-12.5-18.8c0-0.3-0.1-0.6-0.1-0.8l5.6,3.2c7.8,4.5,27.5,11,20.3,8.4c-9.1-5.9-18.8-10.8-28-16.5
		c-7.2-4.5-11.4-11.2-13-19.5c0-0.2,0-0.3,0-0.5l6,3.4c8.6,5,38.6,18.7,35.1,16.7L98,91.9c-7.9-4.6-15.9-9.1-23.8-13.8
		c-6.4-3.7-11.1-9.7-13.4-16.7c-0.4-1.2-0.7-2.5-1.1-3.8c1.4,0.6,2.8,1.3,4.2,2.1l25.7,14.8L121.4,93l30.4,17.5
		c9.4,5.4,18.8,10.8,28.1,16.3c0.5,4.2,1.9,6.8,4.6,8.6c2.1,1.3,3.8,3.3,4.7,5.6l1.5,4.3C174.2,137.3,158.2,137.6,143.2,148z"/>
</g>
</svg>
