<svg id="Layer_1" data-name="Layer 1" xmlns="http://www.w3.org/2000/svg" viewBox="0 0 107.72 109.29"><title>logo_web</title><path d="M177.51,138.88a10.1,10.1,0,0,0-3.9-4.63c-2.22-1.52-3.38-3.65-3.75-7.1h0c-7.68-4.5-15.4-8.94-23.1-13.38l-25-14.41L95.68,84.27,74.59,72.09a34,34,0,0,0-3.45-1.74c.29,1,.53,2.07.87,3.08A24.41,24.41,0,0,0,83,87.17c6.47,3.83,13,7.54,19.53,11.3l15.58,9c2.8,1.61-21.79-9.64-28.9-13.75L84.3,90.89a3,3,0,0,0,0,.42c1.36,6.81,4.8,12.28,10.74,16,7.59,4.68,15.55,8.74,23,13.59h0c5.93,2.14-10.2-3.2-16.65-6.92l-4.61-2.66a6.75,6.75,0,0,0,.06.69,23.44,23.44,0,0,0,10.31,15.46c2.87,1.88,6,3.33,8.77,5.42-1.32,2.49-1.65,5.37-2.39,8a12.38,12.38,0,0,0-.42,2.46c-.91,12.92,2.18,24.24,9.17,33.93.55.76,1.13,1.51,1.79,2.4-1.18-14.7,3.62-26.7,15.62-35.08,12.27-8.57,25.52-8.81,39.1-2.22Zm-10.12-6.34c-.62-.39-1.2-.83-1.82-1.23a8,8,0,0,0-1.32-.74c-1.12-.45-2.26-.85-3.38-1.28a3.41,3.41,0,0,1-.61-.4l.07-.18a12.54,12.54,0,0,0,1.5.12c1.37,0,2.75-.1,4.12-.22a.72.72,0,0,1,.88.55c.34,1,.7,1.94,1,2.91a2,2,0,0,1,0,.47C167.74,132.54,167.52,132.62,167.39,132.54Z" transform="translate(-71.14 -70.35)"/></svg>