<?xml version="1.0" encoding="utf-8"?>
<!-- Generator: Adobe Illustrator 21.1.0, SVG Export Plug-In . SVG Version: 6.00 Build 0)  -->
<svg version="1.1" id="Layer_1" xmlns="http://www.w3.org/2000/svg" xmlns:xlink="http://www.w3.org/1999/xlink" x="0px" y="0px"
	 viewBox="0 0 250 250" style="enable-background:new 0 0 250 250;" xml:space="preserve">
<style type="text/css">
	.st0{fill:none;stroke:#020303;stroke-miterlimit:10;}
	.st1{fill:#020303;}
</style>
<g>
	<circle class="st0" cx="125.5" cy="124.5" r="100"/>
	<path class="st1" d="M189.2,141c-1-2.3-2.6-4.3-4.7-5.6c-2.7-1.9-4.1-4.4-4.6-8.6l0,0c-9.3-5.5-18.7-10.9-28.1-16.3L121.4,93
		L89.7,74.6L64.1,59.8c-1.4-0.8-2.8-1.5-4.2-2.1c0.3,1.2,0.6,2.5,1.1,3.8c2.2,7,7,13,13.4,16.7c7.9,4.7,15.8,9.2,23.8,13.8l19,10.9
		c3.4,2-26.5-11.7-35.2-16.7l-6-3.4c0,0.2,0,0.3,0,0.5c1.6,8.3,5.8,14.9,13,19.5c9.2,5.7,18.9,10.6,28,16.5l0,0
		c7.2,2.6-12.4-3.9-20.3-8.4l-5.6-3.2c0,0.3,0,0.6,0.1,0.8c1.4,7.7,5.9,14.5,12.5,18.8c3.5,2.3,7.3,4.1,10.7,6.6
		c-1.6,3-2,6.5-2.9,9.7c-0.3,1-0.4,2-0.5,3c-1.1,15.7,2.7,29.5,11.2,41.3c0.7,0.9,1.4,1.8,2.2,2.9c-1.4-17.9,4.4-32.5,19-42.7
		c14.9-10.4,31-10.7,47.6-2.7L189.2,141z M176.9,133.3c-0.8-0.5-1.5-1-2.2-1.5c-0.5-0.4-1-0.7-1.6-0.9c-1.4-0.6-2.8-1-4.1-1.6
		c-0.3-0.1-0.5-0.3-0.7-0.5l0.1-0.2c0.6,0.1,1.2,0.1,1.8,0.1c1.7,0,3.4-0.1,5-0.3c0.5-0.1,0.9,0.2,1.1,0.6l0,0
		c0.4,1.2,0.9,2.4,1.2,3.5c0,0.2,0,0.4,0,0.6C177.3,133.3,177.1,133.4,176.9,133.3L176.9,133.3z"/>
</g>
</svg>
