<?xml version="1.0" encoding="utf-8"?>
<!-- Generator: Adobe Illustrator 21.1.0, SVG Export Plug-In . SVG Version: 6.00 Build 0)  -->
<svg version="1.1" id="Layer_1" xmlns="http://www.w3.org/2000/svg" xmlns:xlink="http://www.w3.org/1999/xlink" x="0px" y="0px"
	 viewBox="0 0 250 250" style="enable-background:new 0 0 250 250;" xml:space="preserve">
<g>
	<path d="M61,141.6c-2.8,0-5.4-0.4-7.8-1.3c-2.4-0.9-4.3-2-5.6-3.3c-0.6-0.6-0.9-1.4-0.8-2.2c0.1-0.8,0.5-1.5,1.2-2
		c0.8-0.6,1.6-0.9,2.4-0.8c0.8,0.1,1.5,0.5,2,1.1c0.7,0.8,1.8,1.5,3.3,2.1c1.5,0.7,3.2,1,5,1c2.3,0,4.1-0.4,5.3-1.1
		c1.2-0.8,1.9-1.8,1.9-3c0-1.2-0.5-2.3-1.7-3.1c-1.2-0.9-3.4-1.6-6.5-2.2c-4.1-0.8-7-2-8.9-3.6c-1.8-1.6-2.7-3.6-2.7-5.9
		c0-2.1,0.6-3.8,1.8-5.1c1.2-1.3,2.8-2.4,4.7-3c1.9-0.7,3.9-1,5.9-1c2.7,0,5,0.4,7.1,1.3c2.1,0.8,3.7,2,4.9,3.5
		c0.6,0.6,0.8,1.3,0.8,2c0,0.7-0.4,1.3-1,1.8c-0.6,0.4-1.4,0.6-2.3,0.4c-0.9-0.2-1.6-0.5-2.2-1.1c-1-1-2.1-1.6-3.3-2
		c-1.2-0.4-2.5-0.5-4-0.5c-1.8,0-3.3,0.3-4.5,0.9c-1.2,0.6-1.8,1.5-1.8,2.7c0,0.7,0.2,1.4,0.6,2c0.4,0.6,1.1,1.1,2.3,1.6
		c1.1,0.5,2.8,0.9,5,1.4c3,0.6,5.4,1.4,7.2,2.3c1.8,0.9,3,2,3.8,3.2c0.8,1.2,1.1,2.6,1.1,4.3c0,1.9-0.5,3.5-1.5,5
		c-1,1.5-2.4,2.7-4.4,3.6C66.2,141.1,63.8,141.6,61,141.6z"/>
	<path d="M84.7,141.3c-0.9,0-1.6-0.3-2.1-0.8c-0.5-0.5-0.8-1.3-0.8-2.1V97.1c0-0.9,0.3-1.6,0.8-2.1c0.5-0.5,1.3-0.8,2.1-0.8
		c0.9,0,1.6,0.3,2.1,0.8c0.5,0.5,0.8,1.3,0.8,2.1v41.3c0,0.9-0.3,1.6-0.8,2.1C86.3,141.1,85.6,141.3,84.7,141.3z M87.5,129.3
		l-3.7-4.1l18.5-16.6c0.6-0.6,1.3-0.8,2-0.8c0.7,0,1.4,0.4,1.9,1c0.6,0.6,0.8,1.3,0.8,2c0,0.7-0.4,1.4-1,1.9L87.5,129.3z M106.3,141
		c-0.6,0.5-1.4,0.8-2.1,0.7s-1.4-0.4-2-1.1l-12.3-15.2l4.2-4l12.6,15.5c0.5,0.6,0.8,1.3,0.7,2.1C107.3,139.8,107,140.5,106.3,141z"
		/>
	<path d="M129.2,140c-0.8,0.3-1.5,0.4-2.1,0.1s-1.2-0.8-1.6-1.5l-13.8-26.3c-0.4-0.8-0.5-1.5-0.2-2.2c0.3-0.7,0.8-1.2,1.6-1.5
		c0.8-0.3,1.5-0.4,2.2-0.1c0.7,0.3,1.2,0.8,1.6,1.5l13.2,26.3c0.4,0.8,0.6,1.5,0.5,2.2C130.4,139.2,129.9,139.7,129.2,140z
		 M122,155.8c-0.4,0-0.9-0.1-1.4-0.4c-1.8-0.8-2.3-2.1-1.5-3.8l18.4-41.6c0.8-1.7,2.1-2.2,3.8-1.4c1.8,0.8,2.3,2,1.5,3.8L124.4,154
		C123.9,155.2,123.1,155.8,122,155.8z"/>
	<path d="M165.3,141.6c-3.1,0-6-0.7-8.5-2.2c-2.5-1.5-4.5-3.5-5.9-6c-1.5-2.5-2.2-5.4-2.2-8.6V97.2c0-0.9,0.3-1.7,0.9-2.2
		c0.6-0.6,1.3-0.8,2.2-0.8c0.9,0,1.7,0.3,2.2,0.8c0.6,0.6,0.8,1.3,0.8,2.2v16.3c1.4-1.7,3.1-3,5.1-4c2-1,4.2-1.5,6.6-1.5
		c2.9,0,5.6,0.7,7.9,2.2c2.3,1.5,4.2,3.5,5.5,6c1.3,2.5,2,5.4,2,8.5c0,3.2-0.7,6-2.2,8.6c-1.5,2.5-3.5,4.5-6,6
		C171.3,140.8,168.5,141.6,165.3,141.6z M165.3,136.1c2.1,0,3.9-0.5,5.5-1.5c1.6-1,2.9-2.3,3.8-4.1s1.4-3.7,1.4-5.8
		c0-2.2-0.5-4.1-1.4-5.8s-2.2-3-3.8-4c-1.6-1-3.4-1.5-5.5-1.5c-2,0-3.8,0.5-5.5,1.5c-1.6,1-2.9,2.3-3.8,4c-0.9,1.7-1.4,3.6-1.4,5.8
		c0,2.1,0.5,4.1,1.4,5.8c0.9,1.7,2.2,3.1,3.8,4.1C161.5,135.7,163.3,136.1,165.3,136.1z"/>
	<path d="M199,141.3c-1.8,0-3.3-0.5-4.7-1.5s-2.4-2.3-3.2-4c-0.8-1.7-1.1-3.6-1.1-5.8v-33c0-0.9,0.3-1.6,0.8-2.2
		c0.6-0.6,1.3-0.8,2.2-0.8c0.9,0,1.6,0.3,2.2,0.8c0.6,0.6,0.8,1.3,0.8,2.2v33c0,1.5,0.3,2.7,0.8,3.7c0.6,1,1.3,1.5,2.2,1.5h1.5
		c0.8,0,1.5,0.3,2,0.8c0.5,0.6,0.8,1.3,0.8,2.2s-0.4,1.6-1.1,2.2c-0.8,0.6-1.8,0.8-3,0.8H199z"/>
</g>
</svg>
