<svg id="Layer_1" data-name="Layer 1" xmlns="http://www.w3.org/2000/svg" viewBox="0 0 79.56 84.83"><title>The Orb Photoshop Composite tutorial - YouTube</title><path d="M126.06,159.85a26.43,26.43,0,0,0,.82,6.13c.17.65,0,1.07-.37,1.3s-.8.15-1.3-.36a37,37,0,0,1-6.81-9.64,37.86,37.86,0,0,1-3.49-21,17.6,17.6,0,0,1,.5-2.69c.78-2.93,1.15-3-.29-3.82a34.19,34.19,0,0,1-5.91-3.81,18.69,18.69,0,0,1-6.09-10.82,19,19,0,0,1-.3-1.9,18.88,18.88,0,0,1-9-14.6h0A19.32,19.32,0,0,1,85.35,87.8c-.43-1.37.34-5.36.61-5.21,2.63,1.49,5.23,3,7.84,4.52l13,7.49,14.76,8.54,13.9,8,13.12,7.58c2.76,1.59,5.56,3.13,8.23,4.86a5.7,5.7,0,0,1,2.54,3.6,3.19,3.19,0,0,0,1.44,2.12,8.64,8.64,0,0,1,3.94,5.66,5.89,5.89,0,0,1-.39,3.17.93.93,0,0,1-1.42.4,25.68,25.68,0,0,0-13.44-3.31,7.6,7.6,0,0,0-1,.07c-8,1.09-14,4.73-18,10.62a23.72,23.72,0,0,0-4.12,10.61C126.21,157.63,126.15,158.74,126.06,159.85Zm-30.14-60a2.12,2.12,0,0,0,0,.3,16.61,16.61,0,0,0,7.69,11.42c5.43,3.35,11.13,6.26,16.48,9.73h0c4.24,1.53-7.3-2.29-11.92-4.95l-3.3-1.91a4.84,4.84,0,0,0,0,.49A16.77,16.77,0,0,0,112.31,126c2.05,1.35,4.31,2.38,6.28,3.88-.95,1.78-1.18,3.84-1.71,5.73a8.86,8.86,0,0,0-.3,1.76c-.65,9.25,1.56,17.35,6.56,24.28.39.55.81,1.08,1.28,1.72-.84-10.52,2.59-19.11,11.18-25.1,8.78-6.13,18.26-6.3,28-1.59l-1-2.48a7.23,7.23,0,0,0-2.79-3.32c-1.59-1.09-2.42-2.61-2.68-5.08h0c-5.5-3.22-11-6.4-16.53-9.58l-17.89-10.31L104.06,95.14,89,86.42l-2.32-1.33-.15.09c.2.74.38,1.48.62,2.21A17.47,17.47,0,0,0,95,97.21c4.63,2.74,9.32,5.39,14,8.08l11.15,6.43c2,1.16-15.59-6.9-20.68-9.84Z" transform="translate(-85.22 -82.58)"/><path d="M150.34,126.93a9,9,0,0,0,1.07.09c1,0,2-.07,2.95-.16a.52.52,0,0,1,.63.39c.24.69.5,1.39.74,2.08a1.41,1.41,0,0,1,0,.34c-.13,0-.29.06-.37,0-.44-.28-.86-.6-1.3-.88a5.75,5.75,0,0,0-.94-.53c-.8-.32-1.62-.61-2.42-.92a2.44,2.44,0,0,1-.44-.29Z" transform="translate(-85.22 -82.58)"/></svg>